<svg xmlns="http://www.w3.org/2000/svg" version="1.1" xmlns:xlink="http://www.w3.org/1999/xlink" xmlns:svgjs="http://svgjs.dev/svgjs" width="100%" height="100%" viewBox="0 0 1000 600"><rect width="1000" height="600" x="0" y="0" fill="#ccf381"/><g><circle r="166.66666666666666" cx="387.74367777506507" cy="409.96589021283637" fill="#4831d4" transform="matrix(0.5654138449273387,0,0,0.5654138449273387,0,68.19960591100369)"/><path d="M454.6047995052219 465.9445249724L416.3036285035983 484.1905619002989Q414.80466229705706 484.96588924850994 413.3056960905158 484.96588924850994L413.3056960905158 484.96588924850994Q408.49866653160757 484.96588924850994 404.00176791198373 476.9541733169962Q399.55655778224065 468.9424573854825 399.55655778224065 453.69435287066614L399.55655778224065 453.69435287066614L399.55655778224065 387.0678894144006Q399.55655778224065 369.5971798347127 396.4035598995159 359.8797437371348Q393.19887352691046 350.2139961294376 387.82327057931417 346.4924248580248Q382.4476676317179 342.77085358661196 375.7281639472225 342.77085358661196L375.7281639472225 342.77085358661196Q366.4242357686905 342.77085358661196 360.4800594324061 347.422817675878Q354.5358830961217 352.074781765144 351.53795068303924 359.1561048788045Q348.54001826995665 366.237427992465 347.45455998246126 373.3187511061255L347.45455998246126 373.3187511061255Q347.09274055329615 378.48760009419885 344.3015620997365 382.9844987138227Q341.5103836461769 387.4297088435658 333.6537331843054 387.4297088435658L333.6537331843054 387.4297088435658Q327.70955684802107 387.4297088435658 324.34980500577336 384.48346492036393Q321.0417416534064 381.4855325072814 321.0417416534064 376.2649950293273L321.0417416534064 376.2649950293273Q321.0417416534064 369.5971798347127 327.70955684802107 362.30910276152923Q334.4290605325164 355.0727141782266 344.66338152890165 348.9217838824193Q354.8977025252869 342.77085358661196 366.2174818091675 338.89421684555697Q377.58894958292893 334.96589161462117 387.6165166197912 334.96589161462117L387.6165166197912 334.96589161462117Q401.7791628471122 334.96589161462117 411.08309102564425 344.8383931818413Q420.3870192041763 354.7108947490614 420.3870192041763 375.90317560016217L420.3870192041763 375.90317560016217L420.3870192041763 441.7543117082167Q420.3870192041763 454.7798111581616 423.74677104642393 460.77567598432665Q427.10652288867163 466.719852320611 434.54966543149726 466.719852320611L434.54966543149726 466.719852320611Q441.2174806261119 466.719852320611 453.1575217885613 461.86113427182204L453.1575217885613 461.86113427182204Q455.01830742426773 461.13749541349176 455.741946282598 463.1533465188404Q456.4655851409283 465.2208861140697 454.6047995052219 465.9445249724L454.6047995052219 465.9445249724ZM343.3711692818833 484.5523813294641L343.3711692818833 484.5523813294641Q331.4311281194339 484.5523813294641 325.48695178314955 478.03963160449166Q319.54277544686516 471.52688187951924 319.54277544686516 462.9982810491981L319.54277544686516 462.9982810491981Q319.54277544686516 452.55720609329 327.70955684802107 446.4062757974827Q335.92802673905766 440.3070339915561 354.5358830961217 433.94934973622594L354.5358830961217 433.94934973622594L403.27812905365346 416.478640156538L404.3635873411489 420.56203085711593L361.2036982907364 436.9472821493085Q352.6750974604154 440.3070339915561 349.10859165864474 444.3904246921341Q345.59377434675486 448.473815392712 345.59377434675486 454.7798111581616L345.59377434675486 454.7798111581616Q345.59377434675486 462.636461620033 350.03898447649794 466.87491779025316Q354.5358830961217 471.16506245035407 361.5655177199015 471.16506245035407L361.5655177199015 471.16506245035407Q365.7005969103602 471.16506245035407 369.42216818177303 470.23466963250087Q373.14373945318584 469.30427681464766 376.86531072459866 467.44349117894126L376.86531072459866 467.44349117894126L408.49866653160757 451.4717478057946L409.22230538993784 455.91695793553765L376.86531072459866 473.38766751522564Q365.7005969103602 478.97002442234486 358.2574543675346 481.7612028759045Q350.8143118247089 484.5523813294641 343.3711692818833 484.5523813294641Z " fill="#ccf381" transform="matrix(0.5654138449273387,0,0,0.5654138449273387,0,68.19960591100369)"/><path d="M638.2007907856133 481.8966744310479L638.2007907856133 481.8966744310479Q637.7436727919747 481.8966744310479 637.7436727919747 480.49266916487227Q637.7436727919747 479.0886638986967 638.2007907856133 479.0886638986967L638.2007907856133 479.0886638986967Q646.9186839500061 479.0886638986967 651.2613048895726 477.91321762934035Q655.603925829139 476.73777135998404 657.1385362363542 473.2114325519151Q658.6731466435693 469.68509374384604 658.6731466435693 462.8609751245274L658.6731466435693 462.8609751245274L658.6731466435693 354.00159006802727Q658.6731466435693 347.17747144870856 657.1385362363542 343.78173778167917Q655.603925829139 340.3860041146497 651.3919100306122 339.0799527042538Q647.1472429468254 337.77390129385793 638.4620010676925 337.77390129385793L638.4620010676925 337.77390129385793Q637.972231788794 337.77390129385793 637.972231788794 336.3698960276823Q637.972231788794 334.96589076150667 638.4620010676925 334.96589076150667L638.4620010676925 334.96589076150667L732.9548206098375 334.96589076150667Q735.0771541517308 334.96589076150667 735.0771541517308 337.08822430340007L735.0771541517308 337.08822430340007L735.5342721453694 365.9846117584098Q735.5342721453694 366.70294003412755 734.2608720202334 366.83354517516716Q732.9548206098375 366.93149903094684 732.9548206098375 366.245822040489L732.9548206098375 366.245822040489Q732.2364923341197 353.5444720743887 725.3144198590213 346.72035345507Q718.3923473839229 339.8962348357513 707.3235616808175 339.8962348357513L707.3235616808175 339.8962348357513L692.9896474517222 339.8962348357513Q681.2351847581589 339.8962348357513 677.4802869532707 342.7368966533624Q673.7253891483824 345.5449071857136 673.7253891483824 354.23014906484656L673.7253891483824 354.23014906484656L673.7253891483824 461.9140878519903Q673.7253891483824 468.9667654681283 675.7171175492361 472.62370941723685Q677.70884595009 476.2480020810856 683.9452414347305 477.6520073472612Q690.181636919371 479.0886638986967 702.3932176065729 479.0886638986967L702.3932176065729 479.0886638986967Q703.1115458822907 479.0886638986967 703.1115458822907 480.49266916487227Q703.1115458822907 481.8966744310479 702.3932176065729 481.8966744310479L702.3932176065729 481.8966744310479Q694.6222117147171 481.8966744310479 685.8063646945446 481.66811543422864Q676.9905176743722 481.43955643740935 666.1829422533459 481.43955643740935L666.1829422533459 481.43955643740935Q658.4445876467502 481.43955643740935 651.130699748533 481.66811543422864Q643.8494631355757 481.8966744310479 638.2007907856133 481.8966744310479ZM720.971798919455 429.94847958255014L720.971798919455 429.94847958255014Q720.971798919455 419.5980221551624 715.4537317105321 415.1247960745564Q709.9030132163494 410.6515699939504 696.9731042534298 410.6515699939504L696.9731042534298 410.6515699939504L666.6727115322444 410.6515699939504L666.6727115322444 405.7212259197058L697.6914325291476 405.7212259197058Q710.1642234984287 405.7212259197058 715.4537317105321 401.7377691179982Q720.7432399226356 397.72166103103075 720.7432399226356 389.26497814871715L720.7432399226356 389.26497814871715Q720.7432399226356 388.8078601550786 722.1472451888112 388.8078601550786Q723.5512504549869 388.8078601550786 723.5512504549869 389.26497814871715L723.5512504549869 389.26497814871715Q723.5512504549869 396.3176557648551 723.4206453139473 400.203158710783Q723.3226914581676 404.0886616567109 723.3226914581676 408.3006774552377L723.3226914581676 408.3006774552377Q723.3226914581676 413.7207908083808 723.5512504549869 418.8796938794447Q723.779809451806 424.07124823576845 723.779809451806 429.94847958255014L723.779809451806 429.94847958255014Q723.779809451806 430.4055975761887 722.3758041856305 430.4055975761887Q720.971798919455 430.4055975761887 720.971798919455 429.94847958255014ZM839.6918721244442 471.7747760004795L815.4646184615999 483.30067969722353Q814.5177311890628 483.790448976122 813.6034952017857 483.790448976122L813.6034952017857 483.790448976122Q810.5342743873553 483.790448976122 807.7262638550039 478.7294997608378Q804.8856020373929 473.66855054555356 804.8856020373929 464.0364213938837L804.8856020373929 464.0364213938837L804.8856020373929 421.9489146938751Q804.8856020373929 410.9127802760296 802.8938736365392 404.77433864716875Q800.9021452356853 398.6685483035678 797.473760283396 396.3176557648551Q794.0780266163666 393.96676322614246 789.8333595325798 393.96676322614246L789.8333595325798 393.96676322614246Q783.9561281857982 393.96676322614246 780.2012303809099 396.9053788995333Q776.4463325760216 399.8439945729241 774.5525580309476 404.3172206535301Q772.6914347711333 408.7904467341362 771.9731064954157 413.2636728147422L771.9731064954157 413.2636728147422Q771.7445474985964 416.528801340732 769.9813780945619 419.36946315834314Q768.2182086905274 422.1774736906944 763.2878646162828 422.1774736906944L763.2878646162828 422.1774736906944Q759.5329668113944 422.1774736906944 757.4106332695011 420.3163504308802Q755.2882997276078 418.4225758858061 755.2882997276078 415.1247960745564L755.2882997276078 415.1247960745564Q755.2882997276078 410.9127802760296 759.5329668113944 406.3089490543839Q763.7449826099214 401.7377691179982 770.2099370913811 397.85226617207036Q776.6748915728409 393.96676322614246 783.8581743300185 391.5179168316501Q791.0088058019362 389.03641915189786 797.3758064276163 389.03641915189786L797.3758064276163 389.03641915189786Q806.2896073035685 389.03641915189786 812.1668386503502 395.2728146365384Q818.0440699971318 401.5092101211789 818.0440699971318 414.8962370777371L818.0440699971318 414.8962370777371L818.0440699971318 456.49397449884725Q818.0440699971318 464.7220983843415 820.1664035390252 468.5096474744897Q822.2887370809185 472.264545279378 826.9905221583439 472.264545279378L826.9905221583439 472.264545279378Q831.2351892421307 472.264545279378 838.7449848519071 469.1953244649476L838.7449848519071 469.1953244649476Q839.9204311212635 468.738206471309 840.3775491149021 470.01160659644506Q840.8673183938006 471.31765800684093 839.6918721244442 471.7747760004795L839.6918721244442 471.7747760004795ZM769.3936549598836 483.5292386940428L769.3936549598836 483.5292386940428Q761.8838593501072 483.5292386940428 758.096310259959 479.4151767512957Q754.3414124550707 475.3011148085485 754.3414124550707 469.9136527406653L754.3414124550707 469.9136527406653Q754.3414124550707 463.31809311816596 759.5329668113944 459.43259017223806Q764.6918698824584 455.5797385115701 776.4463325760216 451.56363042460265L776.4463325760216 451.56363042460265L807.2364945761055 440.5274960067571L807.9548228518233 443.10694754228905L780.6909996598084 453.4574049696767Q775.2708863066654 455.5797385115701 773.0505989089922 458.1591900471021Q770.7976602260593 460.73864158263393 770.7976602260593 464.7220983843415L770.7976602260593 464.7220983843415Q770.7976602260593 469.68509374384604 773.6383220436704 472.3624991351577Q776.4463325760216 475.0725558117292 780.9195586566277 475.0725558117292L780.9195586566277 475.0725558117292Q783.4990101921596 475.0725558117292 785.8499027308724 474.48483267705103Q788.200795269585 473.8971095423729 790.5516878082976 472.7216632730166L790.5516878082976 472.7216632730166L810.5342743873553 462.6324161277081L810.9913923809938 465.4404266600593L790.5516878082976 476.4765610779049Q783.4990101921596 480.0028998859739 778.7972251147344 481.7660692900083Q774.095440037309 483.5292386940428 769.3936549598836 483.5292386940428ZM938.6579177471951 391.15875269379126L938.6579177471951 391.15875269379126Q939.1150357408337 391.15875269379126 939.1150357408337 392.56275795996686Q939.1150357408337 393.96676322614246 938.6579177471951 393.96676322614246L938.6579177471951 393.96676322614246Q932.7806864004135 393.96676322614246 928.6666244576663 397.62370717525107Q924.5525625149193 401.24799983909975 920.5691057132117 411.1413392728488L920.5691057132117 411.1413392728488L891.1829489793034 481.66811543422864Q890.9217386972243 482.6150027067657 888.7014512995512 482.6150027067657Q886.4811639018781 482.6150027067657 885.9913946229797 481.66811543422864L885.9913946229797 481.66811543422864L853.0788990810024 410.6515699939504Q848.1485550067578 400.0725535697434 844.9813803365477 397.0359840405729Q841.8142056663376 393.96676322614246 837.3409795857316 393.96676322614246L837.3409795857316 393.96676322614246Q836.6226513100138 393.96676322614246 836.6226513100138 392.56275795996686Q836.6226513100138 391.15875269379126 837.3409795857316 391.15875269379126L837.3409795857316 391.15875269379126Q840.8673183938006 391.15875269379126 844.9813803365477 391.3873116906105Q849.0954422792948 391.6158706874298 853.5686683599009 391.6158706874298L853.5686683599009 391.6158706874298Q861.535581963316 391.6158706874298 867.4128133100977 391.3873116906105Q873.2900446568793 391.15875269379126 878.2530400163838 391.15875269379126L878.2530400163838 391.15875269379126Q878.9387170068417 391.15875269379126 878.9387170068417 392.56275795996686Q878.9387170068417 393.96676322614246 878.2530400163838 393.96676322614246L878.2530400163838 393.96676322614246Q870.9391521181667 393.96676322614246 866.7271363196398 395.72993263017696Q862.482469235853 397.49310203421146 865.0619207713851 403.1417743841738L865.0619207713851 403.1417743841738L895.166405781011 467.0729909230542L888.3422871616923 476.73777135998404L915.8673206357864 409.9658930034925Q919.3936594438553 401.5092101211789 915.2795975011081 397.72166103103075Q911.1655355583611 393.96676322614246 898.9213035858993 393.96676322614246L898.9213035858993 393.96676322614246Q898.4641855922607 393.96676322614246 898.4641855922607 392.56275795996686Q898.4641855922607 391.15875269379126 898.9213035858993 391.15875269379126L898.9213035858993 391.15875269379126Q904.5699759358616 391.15875269379126 909.6309251511459 391.3873116906105Q914.69187436643 391.6158706874298 922.6587879698452 391.6158706874298L922.6587879698452 391.6158706874298Q927.6217833293497 391.6158706874298 930.7889579995597 391.3873116906105Q933.9561326697699 391.15875269379126 938.6579177471951 391.15875269379126ZM951.8163857069342 481.8966744310479L951.8163857069342 481.8966744310479Q951.3592677132956 481.8966744310479 951.3592677132956 480.49266916487227Q951.3592677132956 479.0886638986967 951.8163857069342 479.0886638986967L951.8163857069342 479.0886638986967Q960.9913968649655 479.0886638986967 963.9300125383563 475.8888379432267Q966.8686282117471 472.7216632730166 966.8686282117471 462.8609751245274L966.8686282117471 462.8609751245274L966.8686282117471 418.8796938794447Q966.8686282117471 410.6515699939504 965.2360639487522 406.7987183332824Q963.5708484004974 402.9132153873545 959.0976223198913 402.9132153873545L959.0976223198913 402.9132153873545Q957.2364990600772 402.9132153873545 954.6570475245453 403.729497518852Q952.0449447037535 404.54577965034946 948.5186058956845 406.2109951986042L948.5186058956845 406.2109951986042Q947.6043699084073 406.4395541954235 947.0166467737291 405.1335027850276Q946.4289236390509 403.8601026598916 947.1146006295088 403.3703333809931L947.1146006295088 403.3703333809931L977.6762036327734 389.26497814871715Q978.3945319084911 389.03641915189786 978.6230909053104 389.03641915189786L978.6230909053104 389.03641915189786Q979.080208898949 389.03641915189786 979.7985371746668 389.624142286576Q980.5168654503846 390.2118654212542 980.5168654503846 390.93019369697197L980.5168654503846 390.93019369697197Q980.5168654503846 392.79131695678615 980.2556551683053 400.0725535697434Q980.0270961714859 407.3864414679606 980.0270961714859 418.6511348826254L980.0270961714859 418.6511348826254L980.0270961714859 462.8609751245274Q980.0270961714859 472.7216632730166 982.7371528480576 475.8888379432267Q985.4472095246292 479.0886638986967 994.8507796794797 479.0886638986967L994.8507796794797 479.0886638986967Q995.5364566699376 479.0886638986967 995.5364566699376 480.49266916487227Q995.5364566699376 481.8966744310479 994.8507796794797 481.8966744310479L994.8507796794797 481.8966744310479Q990.606112595693 481.8966744310479 985.0880453867703 481.66811543422864Q979.5699781778474 481.43955643740935 973.4641878342466 481.43955643740935L973.4641878342466 481.43955643740935Q967.3257462053857 481.43955643740935 961.807678996463 481.66811543422864Q956.2896117875401 481.8966744310479 951.8163857069342 481.8966744310479ZM971.5704132891725 361.54403696306366L971.5704132891725 361.54403696306366Q966.6400692149278 361.54403696306366 963.9300125383563 358.9319341422718Q961.2199558617848 356.3524826067399 961.2199558617848 351.6506975293146L961.2199558617848 351.6506975293146Q961.2199558617848 346.94891245188927 963.9300125383563 344.36946091635735Q966.6400692149278 341.7900093808254 971.5704132891725 341.7900093808254L971.5704132891725 341.7900093808254Q976.2721983665978 341.7900093808254 978.8516499021297 344.36946091635735Q981.4311014376617 346.94891245188927 981.4311014376617 351.6506975293146L981.4311014376617 351.6506975293146Q981.4311014376617 361.54403696306366 971.5704132891725 361.54403696306366ZM1057.8351089458233 484.70468496339913L1057.8351089458233 484.70468496339913Q1041.8686304537332 484.70468496339913 1031.7467320231644 477.78261248830074Q1021.6574848778561 470.86054001320235 1016.8250946593912 460.15091844795586Q1011.9927044409262 449.44129688270925 1011.9927044409262 438.4051624648637L1011.9927044409262 438.4051624648637Q1011.9927044409262 426.6506997713004 1016.5965356625718 417.4756886132691Q1021.1677155989576 408.3006774552377 1028.7101624939942 401.9663281148175Q1036.2199581037708 395.6319787743972 1045.394969261802 392.33419896314757Q1054.5699804198334 389.03641915189786 1063.2552222989661 389.03641915189786L1063.2552222989661 389.03641915189786Q1070.0793409182847 389.03641915189786 1076.3157364029253 390.79958855593236Q1082.519480602306 392.56275795996686 1086.6335425450534 395.8605377712165Q1090.7476044878003 399.1583175824662 1090.7476044878003 403.3703333809931L1090.7476044878003 403.3703333809931Q1090.7476044878003 406.4395541954235 1088.657922231167 408.6598415930966Q1086.5355886892735 410.9127802760296 1082.519480602306 410.9127802760296L1082.519480602306 410.9127802760296Q1078.764582797418 410.9127802760296 1076.3157364029253 408.5618877373169Q1073.8342387231733 406.2109951986042 1072.2016744601783 403.1417743841738L1072.2016744601783 403.1417743841738Q1069.5895716393866 398.89710730038706 1066.0632328313177 396.3176557648551Q1062.5368940232484 393.7382042293232 1055.4842164071106 393.7382042293232L1055.4842164071106 393.7382042293232Q1042.0971894505524 393.7382042293232 1034.815952837595 404.18661551249056Q1027.534716224638 414.6676780809178 1027.534716224638 431.35248484872574L1027.534716224638 431.35248484872574Q1027.534716224638 443.33550653910834 1031.648778167385 453.685963966496Q1035.762840110132 464.0364213938837 1044.4480819892651 470.2728168785242Q1053.1333238683978 476.4765610779049 1067.0101201038547 476.4765610779049L1067.0101201038547 476.4765610779049Q1073.377120729535 476.4765610779049 1079.4829110731357 474.84399681490993Q1085.5887014167365 473.2114325519151 1091.0088147698798 468.738206471309L1091.0088147698798 468.738206471309Q1091.4659327635181 468.2484371924105 1092.2822148950158 469.1953244649476Q1093.098497026513 470.1422117374846 1092.6413790328743 470.5993297311232L1092.6413790328743 470.5993297311232Q1084.4132551473804 477.91321762934035 1076.185131261886 481.30895129636974Q1067.9570073763916 484.70468496339913 1057.8351089458233 484.70468496339913ZM1153.046256763686 484.96589524547835L1153.046256763686 484.96589524547835Q1139.2021118134894 484.96589524547835 1128.8516543861015 478.14177662615964Q1118.501196958714 471.31765800684093 1112.8525246087515 459.9223594511365Q1107.203852258789 448.5270608954321 1107.203852258789 435.3359416504333L1107.203852258789 435.3359416504333Q1107.203852258789 423.1243609632314 1111.677078339395 414.1779088020194Q1116.1503044200012 405.2641079260672 1123.6601000297778 399.48483043506525Q1131.2025469248142 393.7382042293232 1140.0183939449867 390.93019369697197Q1148.834240965159 388.08953187936083 1157.2909238474726 388.08953187936083L1157.2909238474726 388.08953187936083Q1171.6248380765678 388.08953187936083 1181.844690362916 395.1422094954988Q1192.097193934524 402.1948871116368 1197.484656002407 413.2636728147422Q1202.9047693555503 424.29980723258774 1202.9047693555503 436.5113879197896L1202.9047693555503 436.5113879197896Q1202.9047693555503 451.56363042460265 1196.0806507362313 462.3712058456289Q1189.2565321169127 473.2114325519151 1177.991838702248 479.0886638986967Q1166.6944940023232 484.96589524547835 1153.046256763686 484.96589524547835ZM1159.8703753830046 480.49266916487227L1159.8703753830046 480.49266916487227Q1172.3431663522856 480.49266916487227 1179.624402965243 471.6768221446998Q1186.9056395782 462.8609751245274 1186.9056395782 443.10694754228905L1186.9056395782 443.10694754228905Q1186.9056395782 428.2832640342953 1182.105900644995 416.8879654785909Q1177.2735104265303 405.4926669228865 1168.8168275442167 399.0277124414267Q1160.3601446619032 392.56275795996686 1149.5199179556166 392.56275795996686L1149.5199179556166 392.56275795996686Q1137.0797782715958 392.56275795996686 1130.0271006554576 401.7377691179982Q1122.9744230393198 410.9127802760296 1122.9744230393198 428.054705037476L1122.9744230393198 428.054705037476Q1122.9744230393198 442.38861926657125 1127.6762081167453 454.4042922422137Q1132.3779931941704 466.3873139325964 1140.7040709354446 473.43999154873427Q1149.0627999619783 480.49266916487227 1159.8703753830046 480.49266916487227ZM1285.1860082104931 481.8966744310479L1285.1860082104931 481.8966744310479Q1284.4676799347753 481.8966744310479 1284.4676799347753 480.49266916487227Q1284.4676799347753 479.0886638986967 1285.1860082104931 479.0886638986967L1285.1860082104931 479.0886638986967Q1294.3610193685245 479.0886638986967 1297.0384247598363 475.8888379432267Q1299.748481436408 472.7216632730166 1299.748481436408 462.8609751245274L1299.748481436408 462.8609751245274L1299.748481436408 424.7569252262263Q1299.748481436408 410.6515699939504 1294.589578365344 404.18661551249056Q1289.39802400902 397.72166103103075 1278.1333305943554 397.72166103103075L1278.1333305943554 397.72166103103075Q1269.6766477120418 397.72166103103075 1260.7301955508296 403.1417743841738Q1251.7837433896175 408.5618877373169 1245.4493940491975 417.96545789216754L1245.4493940491975 417.96545789216754L1244.5025067766605 415.1247960745564Q1254.852964204048 401.24799983909975 1265.0728164903962 394.6850915018602Q1275.292668776744 388.08953187936083 1285.871685200951 388.08953187936083L1285.871685200951 388.08953187936083Q1298.801594163871 388.08953187936083 1305.9848769210485 395.2728146365384Q1313.168159678226 402.42344610845606 1313.168159678226 416.7900116228112L1313.168159678226 416.7900116228112L1313.168159678226 462.8609751245274Q1313.168159678226 472.7216632730166 1315.8455650695378 475.8888379432267Q1318.555621746109 479.0886638986967 1327.7306329041403 479.0886638986967L1327.7306329041403 479.0886638986967Q1328.448961179858 479.0886638986967 1328.448961179858 480.49266916487227Q1328.448961179858 481.8966744310479 1327.7306329041403 481.8966744310479L1327.7306329041403 481.8966744310479Q1323.747176102433 481.8966744310479 1318.1964576082505 481.66811543422864Q1312.6783903993273 481.43955643740935 1306.5726000557265 481.43955643740935L1306.5726000557265 481.43955643740935Q1300.4668097121257 481.43955643740935 1294.8181373621633 481.66811543422864Q1289.1694650122008 481.8966744310479 1285.1860082104931 481.8966744310479ZM1221.940468662071 481.8966744310479L1221.940468662071 481.8966744310479Q1221.2221403863532 481.8966744310479 1221.2221403863532 480.49266916487227Q1221.2221403863532 479.0886638986967 1221.940468662071 479.0886638986967L1221.940468662071 479.0886638986967Q1231.1154798201023 479.0886638986967 1233.8255364966735 475.8888379432267Q1236.5029418879853 472.7216632730166 1236.5029418879853 462.8609751245274L1236.5029418879853 462.8609751245274L1236.5029418879853 416.3002423439127Q1236.5029418879853 408.5618877373169 1234.7397724839507 404.9049437882083Q1232.9766030799165 401.24799983909975 1228.274818002491 401.24799983909975L1228.274818002491 401.24799983909975Q1225.9239254637782 401.24799983909975 1222.7567507935682 402.1948871116368Q1219.5895761233583 403.1417743841738 1215.6061193216506 404.77433864716875L1215.6061193216506 404.77433864716875Q1214.6592320491136 405.0355489292479 1214.0715089144355 403.8601026598916Q1213.4837857797575 402.6846563905352 1214.4306730522944 402.1948871116368L1214.4306730522944 402.1948871116368L1241.694496244309 389.26497814871715Q1242.380173234767 389.03641915189786 1243.0985015104848 389.03641915189786L1243.0985015104848 389.03641915189786Q1244.7310657734797 389.03641915189786 1247.3431685942714 393.96676322614246Q1249.9226201298034 398.89710730038706 1249.9226201298034 408.3006774552377L1249.9226201298034 408.3006774552377L1249.9226201298034 462.8609751245274Q1249.9226201298034 472.7216632730166 1252.632676806375 475.8888379432267Q1255.3100821976868 479.0886638986967 1264.4850933557182 479.0886638986967L1264.4850933557182 479.0886638986967Q1265.2034216314355 479.0886638986967 1265.2034216314355 480.49266916487227Q1265.2034216314355 481.8966744310479 1264.4850933557182 481.8966744310479L1264.4850933557182 481.8966744310479Q1260.5016365540105 481.8966744310479 1254.9835693450877 481.66811543422864Q1249.4328508509047 481.43955643740935 1243.327060507304 481.43955643740935L1243.327060507304 481.43955643740935Q1237.2212701637031 481.43955643740935 1231.5725978137407 481.66811543422864Q1225.9239254637782 481.8966744310479 1221.940468662071 481.8966744310479ZM1356.1699023655115 484.47612596657984L1356.1699023655115 484.47612596657984Q1351.4681172880864 484.47612596657984 1348.6601067557353 481.7660692900083Q1345.819444938124 479.0886638986967 1345.819444938124 474.38687882127135L1345.819444938124 474.38687882127135Q1345.819444938124 469.9136527406653 1348.6601067557353 467.2035960640938Q1351.4681172880864 464.4935393875222 1356.1699023655115 464.4935393875222L1356.1699023655115 464.4935393875222Q1361.1002464397561 464.4935393875222 1363.7123492605483 467.2035960640938Q1366.2918007960802 469.9136527406653 1366.2918007960802 474.38687882127135L1366.2918007960802 474.38687882127135Q1366.2918007960802 479.0886638986967 1363.7123492605483 481.7660692900083Q1361.1002464397561 484.47612596657984 1356.1699023655115 484.47612596657984ZM1391.6618494430209 481.8966744310479L1391.6618494430209 481.8966744310479Q1391.204731449382 481.8966744310479 1391.204731449382 480.49266916487227Q1391.204731449382 479.0886638986967 1391.6618494430209 479.0886638986967L1391.6618494430209 479.0886638986967Q1400.8368606010522 479.0886638986967 1403.775476274443 475.8888379432267Q1406.7140919478338 472.7216632730166 1406.7140919478338 462.8609751245274L1406.7140919478338 462.8609751245274L1406.7140919478338 418.8796938794447Q1406.7140919478338 410.6515699939504 1405.0815276848389 406.7987183332824Q1403.416312136584 402.9132153873545 1398.975737341238 402.9132153873545L1398.975737341238 402.9132153873545Q1397.0819627961641 402.9132153873545 1394.5025112606322 403.729497518852Q1391.9230597250998 404.54577965034946 1388.396720917031 406.2109951986042L1388.396720917031 406.2109951986042Q1387.449833644494 406.4395541954235 1386.862110509816 405.1335027850276Q1386.2743873751378 403.8601026598916 1386.9600643655954 403.3703333809931L1386.9600643655954 403.3703333809931L1417.52166736886 389.26497814871715Q1418.239995644578 389.03641915189786 1418.468554641397 389.03641915189786L1418.468554641397 389.03641915189786Q1418.9583239202957 389.03641915189786 1419.6440009107537 389.624142286576Q1420.362329186471 390.2118654212542 1420.362329186471 390.93019369697197L1420.362329186471 390.93019369697197Q1420.362329186471 392.79131695678615 1420.1337701896518 400.0725535697434Q1419.8725599075728 407.3864414679606 1419.8725599075728 418.6511348826254L1419.8725599075728 418.6511348826254L1419.8725599075728 462.8609751245274Q1419.8725599075728 472.7216632730166 1422.5826165841445 475.8888379432267Q1425.2926732607157 479.0886638986967 1434.6962434155666 479.0886638986967L1434.6962434155666 479.0886638986967Q1435.4145716912844 479.0886638986967 1435.4145716912844 480.49266916487227Q1435.4145716912844 481.8966744310479 1434.6962434155666 481.8966744310479L1434.6962434155666 481.8966744310479Q1430.4515763317795 481.8966744310479 1424.9335091228572 481.66811543422864Q1419.415441913934 481.43955643740935 1413.3096515703332 481.43955643740935L1413.3096515703332 481.43955643740935Q1407.2038612267324 481.43955643740935 1401.65314273255 481.66811543422864Q1396.1350755236267 481.8966744310479 1391.6618494430209 481.8966744310479ZM1411.4158770252593 361.54403696306366L1411.4158770252593 361.54403696306366Q1406.4855329510146 361.54403696306366 1403.775476274443 358.9319341422718Q1401.0654195978714 356.3524826067399 1401.0654195978714 351.6506975293146L1401.0654195978714 351.6506975293146Q1401.0654195978714 346.94891245188927 1403.775476274443 344.36946091635735Q1406.4855329510146 341.7900093808254 1411.4158770252593 341.7900093808254L1411.4158770252593 341.7900093808254Q1416.1176621026843 341.7900093808254 1418.6971136382167 344.36946091635735Q1421.3092164590084 346.94891245188927 1421.3092164590084 351.6506975293146L1421.3092164590084 351.6506975293146Q1421.3092164590084 361.54403696306366 1411.4158770252593 361.54403696306366ZM1497.7132239671696 484.96589524547835L1497.7132239671696 484.96589524547835Q1483.8364277317132 484.96589524547835 1473.4859703043253 478.14177662615964Q1463.1355128769378 471.31765800684093 1457.4868405269754 459.9223594511365Q1451.8708194622727 448.5270608954321 1451.8708194622727 435.3359416504333L1451.8708194622727 435.3359416504333Q1451.8708194622727 423.1243609632314 1456.3113942576192 414.1779088020194Q1460.784620338225 405.2641079260672 1468.3270672332615 399.48483043506525Q1475.836862843038 393.7382042293232 1484.6527098632105 390.93019369697197Q1493.468556883383 388.08953187936083 1501.9252397656965 388.08953187936083L1501.9252397656965 388.08953187936083Q1516.2591539947916 388.08953187936083 1526.5116575663997 395.1422094954988Q1536.7315098527479 402.1948871116368 1542.1189719206313 413.2636728147422Q1547.5390852737742 424.29980723258774 1547.5390852737742 436.5113879197896L1547.5390852737742 436.5113879197896Q1547.5390852737742 451.56363042460265 1540.7149666544556 462.3712058456289Q1533.890848035137 473.2114325519151 1522.6261546204719 479.0886638986967Q1511.3288099205474 484.96589524547835 1497.7132239671696 484.96589524547835ZM1504.5046913012284 480.49266916487227L1504.5046913012284 480.49266916487227Q1516.9774822705099 480.49266916487227 1524.2587188834668 471.6768221446998Q1531.5399554964242 462.8609751245274 1531.5399554964242 443.10694754228905L1531.5399554964242 443.10694754228905Q1531.5399554964242 428.2832640342953 1526.7402165632193 416.8879654785909Q1521.907826344754 405.4926669228865 1513.4511434624405 399.0277124414267Q1504.994460580127 392.56275795996686 1494.1868851591007 392.56275795996686L1494.1868851591007 392.56275795996686Q1481.7140941898197 392.56275795996686 1474.661416573682 401.7377691179982Q1467.6087389575437 410.9127802760296 1467.6087389575437 428.054705037476L1467.6087389575437 428.054705037476Q1467.6087389575437 442.38861926657125 1472.3105240349691 454.4042922422137Q1477.0123091123946 466.3873139325964 1485.3710381389283 473.43999154873427Q1493.697115880202 480.49266916487227 1504.5046913012284 480.49266916487227Z " fill="#4831d4" transform="matrix(0.5654138449273387,0,0,0.5654138449273387,0,68.19960591100369)"/></g></svg>